<?xml version="1.0" encoding="UTF-8"?>
<!DOCTYPE svg PUBLIC "-//W3C//DTD SVG 1.1//EN" "http://www.w3.org/Graphics/SVG/1.1/DTD/svg11.dtd">
<svg xmlns="http://www.w3.org/2000/svg" version="1.1" width="512px" height="512px" style="shape-rendering:geometricPrecision; text-rendering:geometricPrecision; image-rendering:optimizeQuality; fill-rule:evenodd; clip-rule:evenodd" xmlns:xlink="http://www.w3.org/1999/xlink">
<g><path style="opacity:0.974" fill="#000000" d="M 247.5,152.5 C 264.915,151.564 281.915,153.731 298.5,159C 325.38,170.222 340.546,190.388 344,219.5C 345.223,254.817 345.89,290.151 346,325.5C 350.965,330.484 356.632,334.484 363,337.5C 366.817,345.058 364.984,350.891 357.5,355C 353.943,356.408 350.276,357.408 346.5,358C 328.444,360.231 310.444,359.897 292.5,357C 283.351,354.842 277.184,349.342 274,340.5C 259.435,353.635 242.268,359.969 222.5,359.5C 195.847,360.351 173.681,351.018 156,331.5C 138.755,299.982 145.255,274.482 175.5,255C 195.187,244.662 216.187,239.495 238.5,239.5C 249.949,239.97 261.283,241.303 272.5,243.5C 272.667,226.497 272.5,209.497 272,192.5C 271.248,178.226 264.415,173.726 251.5,179C 248.667,181.833 245.833,184.667 243,187.5C 235.339,201.159 225.506,212.992 213.5,223C 185.643,233.321 167.809,224.155 160,195.5C 155.558,177.838 162.058,167.338 179.5,164C 202.259,159.81 224.926,155.977 247.5,152.5 Z M 257.5,265.5 C 262.537,265.413 267.537,265.746 272.5,266.5C 273.714,282.596 270.881,297.929 264,312.5C 258.362,324.477 249.028,331.477 236,333.5C 221.754,330.57 214.921,321.737 215.5,307C 216.355,288.487 225.355,275.821 242.5,269C 247.596,267.64 252.596,266.474 257.5,265.5 Z"/></g>
</svg>
